<svg xmlns="http://www.w3.org/2000/svg" width="13" height="10" viewBox="0 0 13 10">
    <path  var:color.fill="currentColor"  d="M13 1.184c-.478.2-.992.336-1.532.397.55-.312.974-.807 1.173-1.396-.516.289-1.086.499-1.694.612A2.736 2.736 0 0 0 9 0C7.28 0 6.013 1.52 6.402 3.1 4.186 2.995 2.22 1.99.905.462c-.699 1.135-.362 2.62.825 3.37a2.77 2.77 0 0 1-1.208-.315c-.029 1.17.857 2.263 2.14 2.507a2.819 2.819 0 0 1-1.205.043C1.797 7.07 2.782 7.8 3.95 7.82A5.583 5.583 0 0 1 0 8.866 7.862 7.862 0 0 0 4.088 10c4.952 0 7.75-3.959 7.581-7.51.521-.355.973-.8 1.331-1.306z"/>
</svg>
