<?xml version="1.0" encoding="UTF-8" standalone="no"?>
<svg
   xmlns:dc="http://purl.org/dc/elements/1.1/"
   xmlns:cc="http://creativecommons.org/ns#"
   xmlns:rdf="http://www.w3.org/1999/02/22-rdf-syntax-ns#"
   xmlns:svg="http://www.w3.org/2000/svg"
   xmlns="http://www.w3.org/2000/svg"
   xmlns:sodipodi="http://sodipodi.sourceforge.net/DTD/sodipodi-0.dtd"
   xmlns:inkscape="http://www.inkscape.org/namespaces/inkscape"
   width="600"
   height="69.668861"
   viewBox="0 0 480 55.735089"
   version="1.1"
   id="svg2"
   inkscape:version="0.48.0 r9654"
   sodipodi:docname="marca UOC_web.svg">
  <metadata
     id="metadata88">
    <rdf:RDF>
      <cc:Work
         rdf:about="">
        <dc:format>image/svg+xml</dc:format>
        <dc:type
           rdf:resource="http://purl.org/dc/dcmitype/StillImage" />
      </cc:Work>
    </rdf:RDF>
  </metadata>
  <defs
     id="defs86" />
  <sodipodi:namedview
     pagecolor="#ffffff"
     bordercolor="#666666"
     borderopacity="1"
     objecttolerance="10"
     gridtolerance="10"
     guidetolerance="10"
     inkscape:pageopacity="0"
     inkscape:pageshadow="2"
     inkscape:window-width="1680"
     inkscape:window-height="988"
     id="namedview84"
     showgrid="false"
     fit-margin-top="0"
     fit-margin-left="0"
     fit-margin-right="0"
     fit-margin-bottom="0"
     inkscape:zoom="0.22666667"
     inkscape:cx="-433.6726"
     inkscape:cy="36.959034"
     inkscape:window-x="-8"
     inkscape:window-y="-8"
     inkscape:window-maximized="1"
     inkscape:current-layer="svg2" />
  <g
     id="#ffffffff"
     transform="matrix(0.28147729,0,0,0.28147729,-13.626725,-12.017696)">
    <path
       d="m 1118.07,85.05 c 3.57,-3.98 10.19,-4.64 14.57,-1.64 2.7,1.9 3.42,5.31 4.38,8.26 -7.3,0.08 -14.61,0.23 -21.9,-0.08 0.79,-2.24 1.27,-4.74 2.95,-6.54 z"
       id="path5"
       inkscape:connector-curvature="0"
       style="fill:#ffffff" />
    <path
       d="m 968.54,186.56 c 3.65,-3.56 9.9,-3.97 14.11,-1.15 2.69,1.9 3.41,5.32 4.37,8.26 -7.28,0.11 -14.56,0.16 -21.83,-0.02 0.76,-2.49 1.3,-5.28 3.35,-7.09 z"
       id="path7"
       inkscape:connector-curvature="0"
       style="fill:#ffffff" />
    <path
       d="m 1220.24,204.24 c 4.86,-2.69 10.77,-1.75 15.79,-4.08 -0.13,4.01 0.62,8.55 -2.06,11.94 -3.17,3.92 -9.21,4.31 -13.64,2.58 -4.14,-1.8 -4,-8.45 -0.09,-10.44 z"
       id="path9"
       inkscape:connector-curvature="0"
       style="fill:#ffffff" />
    <path
       d="m 1127.31,204.21 c 4.95,-2.67 10.91,-1.79 16.03,-4.08 -0.22,3.78 0.21,7.93 -1.85,11.3 -2.96,4.52 -9.45,5.08 -14.12,3.27 -4.16,-1.79 -3.99,-8.52 -0.06,-10.49 z"
       id="path11"
       inkscape:connector-curvature="0"
       style="fill:#ffffff" />
  </g>
  <g
     id="#2e3a69ff"
     transform="matrix(0.28147729,0,0,0.28147729,-13.626725,-12.017696)">
    <path
       d="m 524.6,43.73 c 15.32,-2.81 31.81,0.09 44.79,8.85 10.11,6.64 17.94,16.82 21.24,28.5 1.93,6.45 1.95,13.24 1.87,19.91 0,21.01 0,42.02 0,63.03 0.07,7.34 0.15,14.85 -2.18,21.9 -3.89,12.73 -13.29,23.39 -24.85,29.79 -15.39,8.57 -34.55,9.84 -51,3.63 -18.63,-6.68 -33.74,-24.24 -34.69,-44.41 -0.08,-23.32 -0.01,-46.64 -0.03,-69.96 0.13,-8.34 -0.77,-16.91 1.99,-24.95 5.77,-19.06 23.57,-32.88 42.86,-36.29 m 6.91,35.02 c -9.18,2 -16.41,10.81 -16.26,20.25 0,22.69 0,45.37 0,68.05 0.02,4.22 1.45,8.39 3.9,11.82 4.69,6.82 13.79,10.32 21.82,8.16 9.38,-2.11 16.27,-11.36 16,-20.93 0.07,-21.71 0.02,-43.43 0.02,-65.15 0,-4.68 -1.02,-9.45 -3.7,-13.36 -4.5,-7.07 -13.61,-10.85 -21.78,-8.84 z"
       id="path14"
       inkscape:connector-curvature="0"
       style="fill:#2e3a69" />
    <path
       d="m 659,52.03 c 22.27,-14.48 54.26,-11.94 73.47,6.62 6.13,5.94 10.94,13.36 13.39,21.57 3.08,9.96 1.9,20.52 2.14,30.78 -11.84,-0.01 -23.67,0.01 -35.51,-0.01 -0.22,-7.29 0.97,-15.18 -2.68,-21.85 -4.25,-8.09 -14.22,-12.65 -23.1,-10.31 -8.72,2.03 -15.75,10.14 -15.95,19.18 -0.04,21.32 0.02,42.64 -0.02,63.96 -0.02,4.04 -0.25,8.24 1.31,12.06 2.68,7.55 10.08,13.01 18.05,13.58 9.4,0.79 18.71,-5.68 21.37,-14.71 1.71,-6.24 0.8,-12.77 1.03,-19.15 11.83,0 23.67,0 35.5,0 -0.16,8.42 0.46,16.88 -0.63,25.26 -1.94,13.73 -10.43,26.02 -21.75,33.8 -15.38,10.66 -35.84,13.2 -53.52,7.29 -15.13,-4.89 -28.31,-16.45 -33.96,-31.46 -4.26,-10.71 -2.9,-22.44 -3.15,-33.69 0.54,-21.33 0.11,-42.67 0.28,-64.01 0.74,-15.9 10.44,-30.51 23.73,-38.91 z"
       id="path16"
       inkscape:connector-curvature="0"
       style="fill:#2e3a69" />
    <path
       d="m 92.49,46.01 c 55.67,-0.02 111.35,-0.02 167.02,0 -0.02,59.08 0.01,118.16 -0.02,177.24 -55.66,0 -111.32,0 -166.99,0 -0.01,-6.83 -0.01,-13.67 0,-20.5 48.83,0 97.66,-0.01 146.49,0 0.02,-45.41 0.01,-90.83 0.01,-136.25 -48.83,0 -97.67,0.01 -146.5,0 -0.01,-6.83 0,-13.66 -0.01,-20.49 z"
       id="path18"
       inkscape:connector-curvature="0"
       style="fill:#2e3a69" />
    <path
       d="m 324.5,47.5 c 11.92,0 23.83,-0.01 35.75,0 0.01,40.18 -0.03,80.35 0.02,120.53 0.3,11.34 11.36,20.76 22.58,19.56 9,-0.69 16.89,-7.91 18.58,-16.73 0.45,-2.59 0.54,-5.23 0.58,-7.85 0,-38.51 -0.03,-77.02 0.01,-115.53 11.83,0.04 23.65,0.01 35.48,0.02 0.01,38.83 -0.01,77.65 0.01,116.48 0,7.07 0.09,14.29 -1.99,21.12 -3.66,12.81 -12.9,23.61 -24.35,30.21 -15.05,8.62 -33.86,10.28 -50.22,4.56 -14.23,-4.74 -26.59,-15.43 -32.56,-29.28 -2.82,-6.47 -3.91,-13.56 -3.9,-20.58 0.02,-40.84 0,-81.67 0.01,-122.51 z"
       id="path20"
       inkscape:connector-curvature="0"
       style="fill:#2e3a69" />
    <path
       d="m 1463.2,53.14 c 9.49,-1.74 20.03,-0.43 27.84,5.6 6.75,5.05 10.92,12.95 12.34,21.17 1.9,11.08 0.05,23.33 -7.28,32.17 -9.08,11.07 -25.59,13.62 -38.54,8.66 -9.38,-3.57 -16.23,-12.22 -18.62,-21.85 -2.66,-10.59 -1.55,-22.41 4.16,-31.85 4.31,-7.23 11.86,-12.31 20.1,-13.9 m 3.25,12.44 c -6.97,1.38 -11.58,7.89 -12.92,14.52 -1.62,7.94 -1.19,16.95 3.63,23.76 5.97,8.45 20.01,8.85 26.6,0.95 3.9,-4.64 5.2,-10.92 5.26,-16.85 -0.05,-6.4 -1.55,-13.19 -5.99,-18.02 -4.2,-4.37 -10.82,-5.65 -16.58,-4.36 z"
       id="path22"
       inkscape:connector-curvature="0"
       style="fill:#2e3a69" />
    <path
       d="m 894.75,54 c 5,0 10,0 15,0.01 0,13.68 -0.02,27.36 0.01,41.04 0.08,4.5 0.54,9.7 4.32,12.74 3.94,2.91 9.26,3.05 13.93,2.29 3.21,-0.46 6.42,-2.22 7.83,-5.27 1.86,-4.01 1.63,-8.57 1.67,-12.88 -0.04,-12.64 0,-25.28 -0.02,-37.92 5,-0.02 10.01,-0.02 15.02,0 -0.02,14.32 0.01,28.63 -0.01,42.95 -0.1,7.41 -2.43,15.34 -8.41,20.15 -6.4,5.21 -15.06,6.31 -23.05,5.95 -7.09,-0.26 -14.58,-2.23 -19.63,-7.5 -5.03,-5.14 -6.64,-12.61 -6.67,-19.59 0.01,-13.99 0.01,-27.98 0.01,-41.97 z"
       id="path24"
       inkscape:connector-curvature="0"
       style="fill:#2e3a69" />
    <path
       d="m 1025.5,54 c 4.58,0 9.16,0 13.75,0 -0.01,3.75 -0.01,7.5 0,11.25 -4.59,0 -9.17,0 -13.75,0 -0.01,-3.75 -0.01,-7.5 0,-11.25 z"
       id="path26"
       inkscape:connector-curvature="0"
       style="fill:#2e3a69" />
    <path
       d="m 1254.5,54 c 4.49,0 8.99,0 13.5,0 -0.01,3.75 -0.01,7.5 0,11.25 -4.51,0 -9.01,0 -13.5,0 -0.01,-3.75 -0.01,-7.5 0,-11.25 z"
       id="path28"
       inkscape:connector-curvature="0"
       style="fill:#2e3a69" />
    <path
       d="M 1515.25,54.01 C 1519.82,54 1524.41,54 1529,54 c -0.03,8.07 0.06,16.13 -0.05,24.2 5.41,-7.04 15.97,-8.84 23.78,-4.99 5.51,2.67 9.12,8.16 10.73,13.94 1.77,6.78 1.68,14.06 -0.3,20.79 -2.02,6.8 -7.44,12.88 -14.53,14.42 -7.3,1.38 -16.18,-0.09 -20.46,-6.8 0.04,1.98 0.06,3.96 0.1,5.94 -4.34,0 -8.67,-0.01 -12.99,0.02 -0.07,-22.51 -0.01,-45.01 -0.03,-67.51 m 20.95,28.2 c -4.49,1.58 -6.76,6.38 -7.41,10.8 -0.8,5.41 -0.26,11.51 3.27,15.93 3.44,4.44 10.79,4.81 14.68,0.76 5.48,-6.17 5.49,-16.06 1.74,-23.12 -2.34,-4.17 -7.84,-6.15 -12.28,-4.37 z"
       id="path30"
       inkscape:connector-curvature="0"
       style="fill:#2e3a69" />
    <path
       d="m 1284.75,58 c 4.58,0 9.17,-0.01 13.76,0.01 -0.02,4.83 -0.01,9.66 -0.01,14.49 3.24,0 6.49,0 9.75,0 -0.01,3.08 -0.01,6.16 0,9.24 -3.26,0.01 -6.51,0.01 -9.75,0.01 0.16,9.05 -0.32,18.13 0.23,27.16 1.6,3.56 6.43,2.06 9.52,2.11 -0.01,3.56 -0.01,7.13 0.01,10.69 -5.26,0.32 -10.64,0.78 -15.8,-0.46 -4.24,-1.01 -7.64,-4.84 -7.65,-9.28 -0.17,-10.07 -0.01,-20.15 -0.06,-30.22 -2.67,0 -5.34,0 -8,0 -0.01,-3.08 -0.01,-6.17 0,-9.25 2.65,0 5.32,0 8,0 0,-4.83 -0.01,-9.66 0,-14.5 z"
       id="path32"
       inkscape:connector-curvature="0"
       style="fill:#2e3a69" />
    <path
       d="m 1377.75,58 c 4.49,0 8.99,0 13.5,0 -0.01,4.84 -0.01,9.67 0,14.5 3.33,0 6.66,0 10,0 -0.01,3.08 -0.01,6.17 0,9.25 -3.33,0 -6.66,0 -9.97,-0.01 -0.06,7.76 -0.04,15.52 -0.03,23.29 0.15,1.97 -0.05,4.66 2.04,5.71 2.51,0.99 5.31,0.34 7.96,0.28 -0.01,3.56 -0.01,7.13 0.01,10.69 -5.89,0.26 -12.11,1.1 -17.71,-1.14 -3.9,-1.42 -5.96,-5.63 -5.8,-9.6 -0.02,-9.74 0.01,-19.48 0,-29.21 -2.76,-0.01 -5.51,-0.01 -8.25,-0.01 -0.01,-3.08 -0.01,-6.17 0,-9.25 2.74,0 5.49,0 8.25,0 0,-4.83 -0.01,-9.66 0,-14.5 z"
       id="path34"
       inkscape:connector-curvature="0"
       style="fill:#2e3a69" />
    <path
       d="m 1675.75,58 c 4.58,0 9.17,-0.01 13.76,0.02 -0.02,4.82 -0.02,9.65 -0.01,14.48 3.24,0 6.49,0 9.75,0 -0.01,3.08 -0.01,6.17 -0.01,9.25 -3.25,0 -6.5,0 -9.74,0 0,8.09 -0.01,16.17 -0.01,24.26 0.09,1.67 -0.13,4.04 1.87,4.7 2.5,0.99 5.26,0.38 7.89,0.31 -0.01,3.57 -0.01,7.14 0.01,10.71 -5.17,0.29 -10.44,0.73 -15.52,-0.41 -4.34,-0.92 -7.92,-4.78 -7.91,-9.32 -0.21,-10.08 -0.01,-20.17 -0.08,-30.25 -2.68,0 -5.35,0 -8,0 -0.01,-3.08 -0.01,-6.17 0,-9.25 2.65,0 5.32,0 7.99,0 0.01,-4.83 0,-9.66 0.01,-14.5 z"
       id="path36"
       inkscape:connector-curvature="0"
       style="fill:#2e3a69" />
    <path
       d="m 979.18,79.29 c 3.06,-4.13 7.56,-7.38 12.79,-7.89 5.37,-0.47 11.53,0.09 15.61,4.03 3.56,3.48 4.58,8.72 4.67,13.53 0.01,10.84 -0.01,21.69 0,32.53 -4.5,0.02 -9.01,0.02 -13.5,0 -0.03,-9.53 0.06,-19.06 -0.03,-28.6 -0.2,-3.44 -0.61,-7.61 -3.77,-9.66 -4.52,-2.56 -11.69,-1.16 -13.58,4.09 -1.31,3.04 -1.36,6.42 -1.39,9.68 0.03,8.17 0.01,16.33 0.02,24.5 -4.58,0 -9.16,0 -13.74,0.01 -0.02,-16.34 -0.02,-32.68 0,-49.02 4.33,0.01 8.66,0.01 13,0.01 -0.02,2.27 -0.03,4.53 -0.08,6.79 z"
       id="path38"
       inkscape:connector-curvature="0"
       style="fill:#2e3a69" />
    <path
       d="m 1109.69,77.66 c 8.1,-7.64 21.7,-8.65 30.85,-2.3 7.82,5.63 10.68,15.9 10.04,25.15 -11.77,0.01 -23.53,-0.05 -35.29,0.03 0.48,3.3 1.06,6.97 3.72,9.29 5.65,4.68 15.44,3.17 18.85,-3.54 4,-0.07 8.01,-0.05 12.02,-0.01 -2.23,6.63 -6.79,12.92 -13.69,15.13 -10.4,3.37 -23.71,1.06 -30.04,-8.54 -6.87,-10.61 -5.98,-26.44 3.54,-35.21 m 8.38,7.39 c -1.68,1.8 -2.16,4.3 -2.95,6.54 7.29,0.31 14.6,0.16 21.9,0.08 -0.96,-2.95 -1.68,-6.36 -4.38,-8.26 -4.38,-3 -11,-2.34 -14.57,1.64 z"
       id="path40"
       inkscape:connector-curvature="0"
       style="fill:#2e3a69" />
    <path
       d="m 1173.95,81.36 c 3.24,-6.92 11.18,-11.32 18.78,-9.81 0.03,4.26 0,8.53 0.03,12.8 -4.04,-0.47 -8.47,-0.89 -12.08,1.36 -4.23,2.48 -5.76,7.72 -5.92,12.33 -0.07,7.82 0.03,15.64 -0.02,23.47 -4.59,-0.01 -9.16,-0.01 -13.74,-0.01 0,-16.34 -0.01,-32.67 0.01,-49.01 4.32,0.01 8.65,0.01 12.98,0 0.01,2.96 0.02,5.92 -0.04,8.87 z"
       id="path42"
       inkscape:connector-curvature="0"
       style="fill:#2e3a69" />
    <path
       d="m 1201.95,77.99 c 4.21,-5.43 11.58,-6.61 18.03,-6.76 6.35,0 13.5,0.92 18.14,5.72 2.72,2.63 3.77,6.39 4.32,10.02 -4.31,0.05 -8.61,0.03 -12.91,0.03 -0.81,-6.97 -9.81,-7.89 -14.88,-5.27 -2.42,1.44 -2.17,5.18 0.29,6.45 5.17,2.9 11.33,2.92 16.89,4.74 4.71,1.35 9.96,4.02 11.33,9.15 0.99,4.81 0.33,10.31 -3,14.11 -3.74,4.3 -9.55,6.02 -15.04,6.49 -7.25,0.47 -15.21,-0.07 -21.15,-4.73 -3.87,-2.9 -5.54,-7.75 -5.92,-12.4 4.29,-0.06 8.59,-0.05 12.9,-0.03 0.51,8 11.09,10.21 16.83,6.31 2.61,-1.66 3.13,-6.07 0.15,-7.63 -7.63,-4.31 -17.33,-3.25 -24.54,-8.52 -5.47,-4.06 -5.12,-12.54 -1.44,-17.68 z"
       id="path44"
       inkscape:connector-curvature="0"
       style="fill:#2e3a69" />
    <path
       d="m 1322.05,76.18 c 5.88,-4.61 13.8,-5.21 21,-4.85 5.36,0.43 11.33,1.34 15.18,5.49 2.6,2.7 2.99,6.67 3.03,10.24 -0.01,8.65 -0.02,17.3 -0.02,25.95 -0.06,2.91 0.69,5.73 1.47,8.52 -4.6,-0.05 -9.19,-0.02 -13.77,-0.02 -0.32,-1.41 -0.61,-2.82 -0.89,-4.22 -5.84,5.13 -14.13,6.42 -21.57,5.02 -4.72,-0.97 -9.18,-4.15 -10.65,-8.87 -1.67,-5.36 -0.98,-12.16 3.58,-15.92 7.29,-5.69 17.22,-3.61 25.44,-6.71 4.29,-1.66 3.12,-8.7 -1.06,-9.75 -3.32,-0.86 -7.14,-1.03 -10.22,0.64 -2.22,1.23 -2.92,3.78 -3.58,6.04 -4.54,0.02 -9.07,0.01 -13.6,0.01 0.53,-4.34 2.08,-8.81 5.66,-11.57 m 9.99,25.81 c -4.36,1.89 -4.57,9.25 0.09,10.9 4.14,1.38 9.42,1.1 12.69,-2.11 3.18,-3.35 2.62,-8.32 2.76,-12.56 -5,2.04 -10.66,1.46 -15.54,3.77 z"
       id="path46"
       inkscape:connector-curvature="0"
       style="fill:#2e3a69" />
    <path
       d="m 1581.95,77.02 c 8.64,-7.34 22.77,-7.97 31.58,-0.59 6.88,5.86 9.16,15.36 8.76,24.06 -11.82,0.03 -23.63,-0.01 -35.45,0.02 0.59,3.44 1.21,7.34 4.17,9.61 5.69,4.42 15.16,2.62 18.57,-3.86 3.94,-0.02 7.9,-0.02 11.86,0.01 -2.07,6.53 -6.53,12.73 -13.25,14.98 -10.22,3.49 -23.29,1.51 -29.92,-7.68 -7.63,-10.83 -6.55,-27.69 3.68,-36.55 m 10.1,6.07 c -3.17,1.74 -4.55,5.3 -5.22,8.65 7.28,0.01 14.56,0.03 21.85,-0.01 -0.84,-2.49 -1.36,-5.25 -3.24,-7.2 -3.32,-3.68 -9.28,-3.73 -13.39,-1.44 z"
       id="path48"
       inkscape:connector-curvature="0"
       style="fill:#2e3a69" />
    <path
       d="m 1645.68,81.05 c 3.45,-6.61 11.07,-11.03 18.57,-9.52 -0.01,4.25 -0.02,8.5 0.02,12.74 -4.16,-0.36 -8.77,-0.81 -12.38,1.71 -4.23,2.84 -5.47,8.23 -5.59,13.02 -0.14,7.5 -0.01,15 -0.05,22.49 -4.51,0.02 -9.01,0.02 -13.5,0 0,-16.33 -0.01,-32.66 0,-48.99 4.33,0 8.66,0 13,0 -0.01,2.85 0.01,5.7 -0.07,8.55 z"
       id="path50"
       inkscape:connector-curvature="0"
       style="fill:#2e3a69" />
    <path
       d="m 1712.56,76.59 c 5.9,-4.96 14.09,-5.65 21.49,-5.26 5.36,0.42 11.32,1.34 15.17,5.48 2.35,2.43 3.04,5.93 3.03,9.2 0.02,9 -0.03,17.99 0,26.99 -0.04,2.91 0.68,5.74 1.45,8.53 -4.59,-0.05 -9.18,-0.03 -13.75,-0.02 -0.31,-1.45 -0.59,-2.89 -0.85,-4.33 -4.59,4.26 -11,5.88 -17.12,5.61 -5.82,0.08 -12.21,-2.56 -14.67,-8.13 -2.48,-5.99 -1.61,-14.3 4.28,-17.99 7.27,-4.64 16.43,-2.95 24.28,-5.83 4.26,-1.7 3.11,-8.8 -1.12,-9.79 -3.31,-0.84 -7.12,-1.03 -10.18,0.67 -2.21,1.25 -2.85,3.81 -3.57,6.04 -4.54,-0.01 -9.06,-0.02 -13.58,0 0.58,-4.11 1.82,-8.4 5.14,-11.17 m 10.42,25.43 c -4.3,1.92 -4.51,9.22 0.13,10.84 4.34,1.5 10.05,1.1 13.19,-2.62 2.73,-3.36 2.11,-7.98 2.27,-12.01 -5.01,2.06 -10.71,1.43 -15.59,3.79 z"
       id="path52"
       inkscape:connector-curvature="0"
       style="fill:#2e3a69" />
    <path
       d="m 1025.5,72.5 c 4.58,0 9.16,0 13.75,0 0,16.33 0,32.67 0,49 -4.59,0 -9.17,0 -13.75,0 -0.01,-16.33 -0.01,-32.67 0,-49 z"
       id="path54"
       inkscape:connector-curvature="0"
       style="fill:#2e3a69" />
    <path
       d="m 1047.57,72.52 c 4.77,-0.04 9.54,-0.01 14.31,-0.04 3.47,11.08 6.9,22.18 10.31,33.28 3.4,-11.09 6.88,-22.15 10.24,-33.24 4.57,-0.03 9.13,-0.03 13.71,-0.01 -5.6,16.28 -11.1,32.59 -16.58,48.91 -5.1,0.15 -10.2,0.09 -15.29,0.05 -5.46,-16.35 -11.21,-32.6 -16.7,-48.95 z"
       id="path56"
       inkscape:connector-curvature="0"
       style="fill:#2e3a69" />
    <path
       d="m 1254.5,72.5 c 4.49,0 8.99,0 13.5,0 0,16.33 0,32.67 0,49 -4.51,0 -9.01,0 -13.5,0 -0.01,-16.33 -0.01,-32.67 0,-49 z"
       id="path58"
       inkscape:connector-curvature="0"
       style="fill:#2e3a69" />
    <path
       d="m 83.55,91.79 c 9.65,-1.87 19.96,-0.55 28.68,4.04 11.33,5.73 19.84,16.72 22.54,29.12 2.57,11.63 0.42,24.36 -6.42,34.18 -6.79,10.2 -18.14,17.16 -30.27,18.76 C 86.7,179.48 74.72,176.42 65.6,169.41 54.4,161.04 47.71,146.97 48.47,132.99 48.66,113.26 64.21,95.26 83.55,91.79 z"
       id="path60"
       inkscape:connector-curvature="0"
       style="fill:#2e3a69" />
    <path
       d="m 1044.86,167.83 c 9.21,-14.1 30.08,-17.28 44.11,-8.83 6.95,4.18 11.13,11.83 12.13,19.76 -4.86,-0.01 -9.71,-0.02 -14.56,0.01 -1.54,-7.86 -9.92,-12.96 -17.63,-11.47 -7.39,0.74 -12.78,7.25 -14.29,14.18 -1.8,8.14 -1.48,17.49 3.57,24.47 5.31,7.39 17.6,8.99 24.05,2.26 2.97,-2.89 4.04,-7.02 4.82,-10.95 4.87,-0.01 9.74,-0.05 14.61,0.04 -0.82,9.61 -5.61,19.27 -14.31,24 -13.61,7.31 -32.8,4.15 -41.98,-8.74 -9.12,-12.91 -9.14,-31.56 -0.52,-44.73 z"
       id="path62"
       inkscape:connector-curvature="0"
       style="fill:#2e3a69" />
    <path
       d="m 927.75,156 c 4.58,0 9.16,0 13.75,0 0,22.5 0.01,45 0,67.5 -4.35,0 -8.68,0 -13.02,0 0,-1.99 0.03,-3.97 0.09,-5.94 -6.78,10.06 -23.27,9.42 -30.66,0.4 -5.73,-6.82 -7.27,-16.42 -5.86,-25.03 1.05,-6.82 4.62,-13.6 10.78,-17.07 7.94,-4.54 19.2,-3.31 24.99,4.14 -0.15,-8 -0.04,-16 -0.07,-24 m -15.36,28.43 c -4.26,1.76 -6.31,6.4 -6.9,10.7 -0.71,5.4 -0.09,11.48 3.56,15.79 3.69,4.55 11.45,4.9 15.42,0.54 2.64,-2.76 3.4,-6.73 3.75,-10.4 0.26,-4.82 -0.27,-10.1 -3.37,-14.02 -2.93,-3.6 -8.32,-4.28 -12.46,-2.61 z"
       id="path64"
       inkscape:connector-curvature="0"
       style="fill:#2e3a69" />
    <path
       d="m 1263,156 c 4.58,0 9.16,0 13.75,0.01 -0.06,22.4 0.11,44.8 -0.08,67.2 -4.41,0.71 -9.14,0.09 -13.67,0.29 0,-22.5 0,-45 0,-67.5 z"
       id="path66"
       inkscape:connector-curvature="0"
       style="fill:#2e3a69" />
    <path
       d="m 1173.25,160 c 4.58,0 9.16,0 13.75,0 0,4.83 -0.01,9.66 0,14.5 3.24,0 6.49,0 9.75,0 -0.01,3.08 -0.01,6.16 0,9.25 -3.26,0 -6.51,0 -9.75,0 0.01,8.11 -0.02,16.23 0,24.34 0,1.71 0.16,4.07 2.08,4.74 2.48,0.79 5.13,0.3 7.68,0.21 -0.03,3.56 -0.02,7.11 0.01,10.67 -5.95,0.24 -12.28,1.14 -17.9,-1.28 -3.74,-1.53 -5.6,-5.61 -5.57,-9.47 -0.14,-9.73 0,-19.47 -0.05,-29.21 -2.68,0 -5.34,0 -8,0 -0.01,-3.09 -0.01,-6.17 0,-9.25 2.66,0 5.32,0 8,0 0,-4.84 0,-9.67 0,-14.5 z"
       id="path68"
       inkscape:connector-curvature="0"
       style="fill:#2e3a69" />
    <path
       d="m 959.73,179.62 c 7.61,-7.16 19.97,-8.42 29.04,-3.39 9.06,5.15 12.53,16.38 11.82,26.28 -11.77,0.01 -23.54,-0.05 -35.3,0.03 0.48,3.32 1.07,7.05 3.8,9.35 5.68,4.64 15.4,3.04 18.82,-3.64 3.99,-0.01 7.97,-0.01 11.97,0.03 -2.18,6.37 -6.41,12.49 -12.97,14.85 -10.51,3.81 -24.22,1.54 -30.74,-8.23 -6.89,-10.63 -6.01,-26.51 3.56,-35.28 m 8.81,6.94 c -2.05,1.81 -2.59,4.6 -3.35,7.09 7.27,0.18 14.55,0.13 21.83,0.02 -0.96,-2.94 -1.68,-6.36 -4.37,-8.26 -4.21,-2.82 -10.46,-2.41 -14.11,1.15 z"
       id="path70"
       inkscape:connector-curvature="0"
       style="fill:#2e3a69" />
    <path
       d="m 1119.24,177.08 c 7.42,-4.43 16.62,-4.43 24.91,-3.08 5.63,0.91 11.71,4.43 12.44,10.62 0.4,6.12 0.03,12.27 0.16,18.41 0.14,6.84 -0.66,13.91 1.62,20.51 -4.6,-0.07 -9.2,-0.04 -13.79,-0.03 -0.31,-1.39 -0.6,-2.78 -0.88,-4.17 -6.97,5.8 -17.29,7.12 -25.58,3.6 -7.54,-3.39 -9.35,-13.71 -5.59,-20.49 2.81,-4.61 8.31,-6.31 13.35,-7.04 4.9,-0.98 10.15,-0.63 14.77,-2.72 4.32,-1.83 2.66,-9.01 -1.63,-9.75 -3.14,-0.73 -6.62,-0.76 -9.59,0.6 -2.44,1.12 -3.05,3.92 -3.79,6.23 -4.54,-0.04 -9.08,0.03 -13.61,-0.09 0.49,-4.98 2.79,-9.96 7.21,-12.6 m 8.07,27.13 c -3.93,1.97 -4.1,8.7 0.06,10.49 4.67,1.81 11.16,1.25 14.12,-3.27 2.06,-3.37 1.63,-7.52 1.85,-11.3 -5.12,2.29 -11.08,1.41 -16.03,4.08 z"
       id="path72"
       inkscape:connector-curvature="0"
       style="fill:#2e3a69" />
    <path
       d="m 1210.99,177.97 c 6.83,-5.05 15.91,-5.22 24.03,-4.32 5.72,0.72 12.47,3.25 14.18,9.38 1.16,5.22 0.28,10.64 0.55,15.94 0.33,8.18 -1.01,16.62 1.54,24.56 -4.6,-0.05 -9.2,-0.03 -13.79,-0.02 -0.29,-1.47 -0.56,-2.93 -0.81,-4.39 -5.68,5.35 -14.07,6.53 -21.51,5.21 -3.52,-0.72 -6.94,-2.53 -9.02,-5.52 -5.02,-7.21 -2.61,-19.45 6.58,-21.92 6.5,-2.41 13.67,-1.67 20.2,-3.87 4.4,-1.27 3.98,-8.21 0,-9.72 -3.34,-1.21 -7.27,-1.23 -10.52,0.25 -2.43,1.14 -3.15,3.87 -3.83,6.21 -4.53,-0.02 -9.05,0.03 -13.56,-0.08 0.49,-4.45 2.2,-9 5.96,-11.71 m 9.25,26.27 c -3.91,1.99 -4.05,8.64 0.09,10.44 4.43,1.73 10.47,1.34 13.64,-2.58 2.68,-3.39 1.93,-7.93 2.06,-11.94 -5.02,2.33 -10.93,1.39 -15.79,4.08 z"
       id="path74"
       inkscape:connector-curvature="0"
       style="fill:#2e3a69" />
    <path
       d="m 1361.43,181.3 c 5.6,-8.61 18.1,-10.41 26.62,-5.3 4.91,3.17 6.31,9.45 6.45,14.93 0.02,10.85 -0.01,21.71 0,32.57 -4.51,0 -9.01,0 -13.5,0 -0.04,-9.53 0.07,-19.06 -0.04,-28.58 -0.15,-3.76 -0.88,-8.56 -4.81,-10.19 -4.06,-1.54 -9.73,-0.7 -11.98,3.38 -1.67,2.98 -1.93,6.49 -1.94,9.84 0.02,8.52 0.02,17.03 0.02,25.55 -4.59,0 -9.17,0 -13.75,0 -0.01,-16.33 -0.01,-32.67 0,-49 4.33,0 8.67,-0.01 13.02,0 -0.03,2.27 -0.04,4.53 -0.09,6.8 z"
       id="path76"
       inkscape:connector-curvature="0"
       style="fill:#2e3a69" />
    <path
       d="m 1465.26,177.26 c 7.55,-4.68 17.05,-4.64 25.54,-3.19 5.57,0.93 11.57,4.66 12.09,10.8 0.33,9.71 -0.08,19.44 0.17,29.16 0.08,3.23 0.58,6.44 1.57,9.52 -4.6,-0.09 -9.18,-0.04 -13.76,-0.05 -0.32,-1.38 -0.62,-2.77 -0.9,-4.15 -6.08,5.14 -14.56,6.5 -22.19,4.81 -4.05,-0.97 -7.9,-3.54 -9.54,-7.49 -1.84,-4.43 -1.76,-9.76 0.45,-14.04 2.7,-4.66 8.25,-6.38 13.26,-7.19 4.97,-0.96 10.24,-0.73 14.99,-2.68 4.04,-1.82 2.85,-8.32 -1.02,-9.62 -3.35,-0.98 -7.23,-1.09 -10.38,0.53 -2.35,1.1 -2.91,3.82 -3.56,6.07 -4.56,0.02 -9.11,0.04 -13.66,-0.03 0.53,-4.88 2.59,-9.8 6.94,-12.45 m 8.14,27.07 c -3.85,2.28 -3.66,8.93 0.66,10.58 4.37,1.33 10.07,1.09 13.16,-2.74 2.69,-3.36 2.13,-7.97 2.41,-11.99 -5.21,2.23 -11.27,1.33 -16.23,4.15 z"
       id="path78"
       inkscape:connector-curvature="0"
       style="fill:#2e3a69" />
    <path
       d="m 1437.87,174.51 c 4.74,-0.02 9.48,-0.01 14.23,-0.01 -6.8,18.38 -13.66,36.75 -20.46,55.13 -1.43,3.84 -3.8,7.69 -7.7,9.38 -5.56,2.47 -11.82,1.64 -17.7,1.19 0,-3.76 0,-7.52 0.01,-11.27 3.19,0.07 6.51,1.04 9.65,0.07 3.4,-1.42 4.25,-5.78 2.75,-8.9 -5.64,-15.21 -11.43,-30.37 -17.08,-45.57 4.87,-0.06 9.75,-0.03 14.63,-0.03 3.77,11.09 7.32,22.25 11.06,33.35 3.51,-11.12 7.13,-22.21 10.61,-33.34 z"
       id="path80"
       inkscape:connector-curvature="0"
       style="fill:#2e3a69" />
    <path
       d="m 1289.75,174.5 c 4.58,0 9.16,0 13.75,0 0.01,9.5 -0.01,19 0,28.5 0.06,3.28 0.52,6.97 3.03,9.35 5.06,3.79 13.96,1.28 14.94,-5.43 1.63,-10.7 0.38,-21.63 0.79,-32.43 4.49,0.01 8.98,0.01 13.48,0 0.02,16.34 0.02,32.68 0,49.02 -4.34,-0.01 -8.68,-0.01 -13.01,-0.01 0,-2.17 0.02,-4.33 0.09,-6.49 -2.88,3.83 -6.98,6.89 -11.81,7.56 -5.69,0.65 -12.2,0.18 -16.54,-4 -3.96,-4.09 -4.54,-10.11 -4.7,-15.51 -0.06,-10.19 -0.01,-20.37 -0.02,-30.56 z"
       id="path82"
       inkscape:connector-curvature="0"
       style="fill:#2e3a69" />
  </g>
</svg>
